# xmcd
#
# Track frame offsets:
#	150
#	15195
#	33052
#	48960
#	60675
#	74580
#	92005
#	105427
#	122427
#	135720
#	147347
#	162200
#
# Disc length: 2440 seconds
#
# Revision: 1
# Processed by: cddbd v1.5.1PL0 Copyright (c) Steve Scherf et al.
# Submitted via: EasyCDDAExtractor 7.0.6.1
#
DISCID=9409860c
DTITLE=Greg Williams - Greg Williams Stop Look And Listen
DYEAR=1900
DGENRE=Country
TTITLE0=Stop Look And Listen
TTITLE1=I Don't Wanna Be A Farmer No More
TTITLE2=Weary Body Down
TTITLE3=My Key Ring
TTITLE4=Hard Times
TTITLE5=Behind Closed Dors
TTITLE6=Hey Sunday Driver
TTITLE7=I Still Love You
TTITLE8=Free The Wetlands
TTITLE9=Through Love
TTITLE10=Make One Break One
TTITLE11=You've Lost That Lovin' Feeling
EXTD=
EXTT0=
EXTT1=
EXTT2=
EXTT3=
EXTT4=
EXTT5=
EXTT6=
EXTT7=
EXTT8=
EXTT9=
EXTT10=
EXTT11=
PLAYORDER=
